<svg xmlns="http://www.w3.org/2000/svg" version="1.1" xmlns:xlink="http://www.w3.org/1999/xlink" xmlns:svgjs="http://svgjs.dev/svgjs" width="1000" height="1000" viewBox="0 0 1000 1000"><g transform="matrix(1,0,0,1,-0.14221556886212738,-0.14221556886229791)"><svg viewBox="0 0 334 334" data-background-color="#dedede" preserveAspectRatio="xMidYMid meet" height="1000" width="1000" xmlns="http://www.w3.org/2000/svg" xmlns:xlink="http://www.w3.org/1999/xlink"><g id="tight-bounds" transform="matrix(1,0,0,1,0.04749999999998522,0.04750000000001364)"><svg viewBox="0 0 333.90454557049503 333.90454557049503" height="333.90454557049503" width="333.90454557049503"><g><svg></svg></g><g><svg viewBox="0 0 333.90454557049503 333.90454557049503" height="333.90454557049503" width="333.90454557049503"><g><path d="M0 166.952c0-92.205 74.747-166.952 166.952-166.952 92.205 0 166.952 74.747 166.953 166.952 0 92.205-74.747 166.952-166.953 166.953-92.205 0-166.952-74.747-166.952-166.953zM166.952 325.778c87.717 0 158.826-71.109 158.826-158.826 0-87.717-71.109-158.826-158.826-158.826-87.717 0-158.826 71.109-158.826 158.826 0 87.717 71.109 158.826 158.826 158.826z" data-fill-palette-color="tertiary" fill="#374151" stroke="transparent"></path><ellipse rx="160.27418187383762" ry="160.27418187383762" cx="166.95227278524752" cy="166.95227278524752" fill="#374151" stroke="transparent" stroke-width="0" fill-opacity="1" data-fill-palette-color="tertiary"></ellipse></g><g transform="matrix(1,0,0,1,100.59790492626188,71.17305217166896)"><svg viewBox="0 0 132.70873571797128 191.55844122715712" height="191.55844122715712" width="132.70873571797128"><g><svg viewBox="0 0 132.70873571797128 191.55844122715712" height="191.55844122715712" width="132.70873571797128"><g><svg viewBox="0 0 213.1584412271571 307.6835787408932" height="191.55844122715712" width="132.70873571797128"><g transform="matrix(1,0,0,1,0,162.94379816128216)"><svg viewBox="0 0 213.1584412271571 144.73978057961105" height="144.73978057961105" width="213.1584412271571"><g id="textblocktransform"><svg viewBox="0 0 213.1584412271571 144.73978057961105" height="144.73978057961105" width="213.1584412271571" id="textblock"><g><svg viewBox="0 0 213.1584412271571 144.73978057961105" height="144.73978057961105" width="213.1584412271571"><g transform="matrix(1,0,0,1,0,0)"><svg width="213.1584412271571" viewBox="1.100000023841858 -33.900001525878906 51.25 34.80000305175781" height="144.73978057961105" data-palette-color="#dedede"><path d="M26.05 0L1.1 0 1.1-0.5 2.25-0.95Q3.1-1.3 3.43-1.88 3.75-2.45 3.75-3.45L3.75-3.45 3.75-29.55Q3.75-30.55 3.48-31.13 3.2-31.7 2.25-32.05L2.25-32.05 1.1-32.5 1.1-33 25.05-33 25.35-25.3 24.85-25.3 22.7-30Q22.25-30.9 21.75-31.45 21.25-32 20.25-32L20.25-32 11.25-32 11.25-17.55 16.6-17.55Q17.6-17.55 18.13-18.07 18.65-18.6 19.05-19.5L19.05-19.5 20.05-21.5 20.55-21.5 20.55-12.5 20.05-12.5 19.05-14.6Q18.6-15.5 18.1-16.03 17.6-16.55 16.6-16.55L16.6-16.55 11.25-16.55 11.25-1 21.35-1Q22.35-1 22.9-1.53 23.45-2.05 23.8-3L23.8-3 25.85-7.7 26.35-7.7 26.05 0ZM39.6 0.9L39.6 0.9Q36.85 0.9 34 0.23 31.15-0.45 29.25-1.55L29.25-1.55 29.5-8.35 30-8.35 31.55-5.1Q32.25-3.7 33.05-2.63 33.85-1.55 35.25-0.95L35.25-0.95Q36.25-0.45 37.17-0.28 38.1-0.1 39.25-0.1L39.25-0.1Q42.3-0.1 44.07-1.75 45.85-3.4 45.85-6L45.85-6Q45.85-8.45 44.65-9.83 43.45-11.2 40.8-12.5L40.8-12.5 38.75-13.4Q34.45-15.3 32.02-17.78 29.6-20.25 29.6-24.35L29.6-24.35Q29.6-27.3 31.12-29.45 32.65-31.6 35.37-32.75 38.1-33.9 41.75-33.9L41.75-33.9Q44.4-33.9 46.77-33.2 49.15-32.5 50.9-31.3L50.9-31.3 50.6-25.3 50.1-25.3 48.05-29.05Q47.2-30.8 46.35-31.53 45.5-32.25 44.4-32.55L44.4-32.55Q43.75-32.75 43.2-32.83 42.65-32.9 41.8-32.9L41.8-32.9Q39.25-32.9 37.5-31.43 35.75-29.95 35.75-27.45L35.75-27.45Q35.75-24.9 37.1-23.38 38.45-21.85 41.05-20.65L41.05-20.65 43.35-19.65Q48.15-17.55 50.25-15.18 52.35-12.8 52.35-9.05L52.35-9.05Q52.35-4.65 49.02-1.88 45.7 0.9 39.6 0.9Z" opacity="1" transform="matrix(1,0,0,1,0,0)" fill="#dedede" class="wordmark-text-0" data-fill-palette-color="quaternary" id="text-0"></path></svg></g></svg></g></svg></g></svg></g><g transform="matrix(1,0,0,1,40.713262274387006,0)"><svg viewBox="0 0 131.7319166783831 128.7742097211699" height="128.7742097211699" width="131.7319166783831"><g><svg xmlns="http://www.w3.org/2000/svg" xmlns:xlink="http://www.w3.org/1999/xlink" version="1.1" baseProfile="basic" x="0" y="0" viewBox="18.8179988861084 18.965999603271484 63.86799621582031 62.43400192260742" xml:space="preserve" height="128.7742097211699" width="131.7319166783831" class="icon-icon-0" data-fill-palette-color="quaternary" id="icon-0"><g fill="#dedede" data-fill-palette-color="quaternary"><circle cx="38.373" cy="59.574" r="5.4" fill="#dedede" data-fill-palette-color="quaternary"></circle><path d="M41.459 65.939l-0.032-0.065H41.23h-1.312-3.082-1.311-0.23l-1.377 0.163h-0.197c-0.068 0.008-0.129 0.024-0.196 0.032l-0.294 0.034h-0.033c-5.898 0.832-6.427 3.638-6.427 3.638l-0.065 0.524V81.4h23.345V70.266l-0.066-0.524C49.985 69.741 49.363 66.332 41.459 65.939z" fill="#dedede" data-fill-palette-color="quaternary"></path><path d="M69.92 65.939l-0.033-0.065h-0.197-1.311-3.083-1.31-0.23l-1.377 0.163h-0.197c-0.068 0.008-0.129 0.024-0.197 0.032l-0.295 0.034h-0.031c-5.898 0.832-6.428 3.638-6.428 3.638l-0.064 0.524V81.4h23.343V70.266l-0.065-0.524C78.443 69.741 77.822 66.332 69.92 65.939z" fill="#dedede" data-fill-palette-color="quaternary"></path><circle cx="66.835" cy="59.574" r="5.4" fill="#dedede" data-fill-palette-color="quaternary"></circle><circle cx="28.756" cy="35.065" r="4.1" fill="#dedede" data-fill-palette-color="quaternary"></circle><path d="M47.165 38.494l11.05-11.907-9.118 12.896c0.18 0.189 0.342 0.398 0.478 0.633 0.648 1.123 0.648 2.573 0.001 3.695-0.61 1.057-1.689 1.663-2.959 1.663 0 0 0 0-0.001 0H39.47v7.827c2.917 0.494 5.16 2.975 5.29 5.998h15.75c0.145-3.385 2.936-6.095 6.355-6.095 0.32 0 0.631 0.031 0.938 0.077V23.218c0-2.338-1.914-4.252-4.252-4.252H43.722c-2.339 0-4.252 1.914-4.252 4.252v15.233l7.139-0.002C46.799 38.45 46.984 38.468 47.165 38.494z" fill="#dedede" data-fill-palette-color="quaternary"></path><path d="M28.276 66.65V60.4h1.082L29.356 66.1c0.963-0.414 2.18-0.768 3.733-0.986l0.353-0.037c0.081-0.016 0.137-0.025 0.197-0.033l0.566-0.05v-0.65c-1.325-1.167-2.171-2.867-2.171-4.769 0-1.905 0.845-3.613 2.174-4.781l0.003-8.792v-1.944h12.396c2.602 0.008 2.602-4.024 0.002-4.024H33.676v0.004H33.61h-0.209l-9.49-0.004c-3.062 0-4.982 2.499-4.982 5.615v13.288c0 2.582 3.412 2.582 3.412 0V46.001h1.086L23.42 78.975c0 1.301 1.03 2.356 2.317 2.415l0.007-11.245 0.064-0.525C25.86 69.342 26.225 67.881 28.276 66.65z" fill="#dedede" data-fill-palette-color="quaternary"></path><rect x="51.068" y="73.895" width="3.028" height="1.502" fill="#dedede" data-fill-palette-color="quaternary"></rect><rect x="79.658" y="73.895" width="3.028" height="1.502" fill="#dedede" data-fill-palette-color="quaternary"></rect><rect x="18.818" y="73.895" width="3.522" height="1.502" fill="#dedede" data-fill-palette-color="quaternary"></rect></g></svg></g></svg></g><g></g></svg></g></svg></g></svg></g></svg></g><defs></defs></svg><rect width="333.90454557049503" height="333.90454557049503" fill="none" stroke="none" visibility="hidden"></rect></g></svg></g></svg>